REM DIRINDEX 1\2,1\4,1\5,1\6,1\7,1\3\8,1\3\9,1\3\10
REM DIRNAME cjc113,folder01,folder02,folder03,folder04,folder05,folder06,folder07,folder08,folder09
TITLE ""
FILE "DB4500_5th_1A_18.mp3" MP3
  TRACK 01 AUDIO
    TITLE "0:"
    INDEX 01 00:00:00
  TRACK 02 AUDIO
    TITLE "8:cjc113_0710"
    INDEX 01 00:00:01
  TRACK 03 AUDIO
    TITLE "0:"
    INDEX 01 00:01:24
  TRACK 04 AUDIO
    TITLE "9:cjc113_0711"
    INDEX 01 00:01:38
  TRACK 05 AUDIO
    TITLE "0:"
    INDEX 01 00:02:43
  TRACK 06 AUDIO
    TITLE "10:cjc113_0712"
    INDEX 01 00:02:63
  TRACK 07 AUDIO
    TITLE "0:"
    INDEX 01 00:06:41
  TRACK 08 AUDIO
    TITLE "8:cjc113_0713"
    INDEX 01 00:07:09
  TRACK 09 AUDIO
    TITLE "0:"
    INDEX 01 00:08:19
  TRACK 10 AUDIO
    TITLE "9:cjc113_0714"
    INDEX 01 00:08:40
  TRACK 11 AUDIO
    TITLE "0:"
    INDEX 01 00:09:45
  TRACK 12 AUDIO
    TITLE "10:cjc113_0715"
    INDEX 01 00:09:63
  TRACK 13 AUDIO
    TITLE "0:"
    INDEX 01 00:13:47
  TRACK 14 AUDIO
    TITLE "8:cjc113_0716"
    INDEX 01 00:14:15
  TRACK 15 AUDIO
    TITLE "0:"
    INDEX 01 00:15:27
  TRACK 16 AUDIO
    TITLE "9:cjc113_0717"
    INDEX 01 00:15:42
  TRACK 17 AUDIO
    TITLE "0:"
    INDEX 01 00:16:53
  TRACK 18 AUDIO
    TITLE "10:cjc113_0718"
    INDEX 01 00:16:73
  TRACK 19 AUDIO
    TITLE "0:"
    INDEX 01 00:20:20
  TRACK 20 AUDIO
    TITLE "8:cjc113_0719"
    INDEX 01 00:20:65
  TRACK 21 AUDIO
    TITLE "0:"
    INDEX 01 00:22:01
  TRACK 22 AUDIO
    TITLE "9:cjc113_0720"
    INDEX 01 00:22:21
  TRACK 23 AUDIO
    TITLE "0:"
    INDEX 01 00:23:55
  TRACK 24 AUDIO
    TITLE "10:cjc113_0721"
    INDEX 01 00:24:00
  TRACK 25 AUDIO
    TITLE "0:"
    INDEX 01 00:29:40
  TRACK 26 AUDIO
    TITLE "8:cjc113_0722"
    INDEX 01 00:30:08
  TRACK 27 AUDIO
    TITLE "0:"
    INDEX 01 00:31:16
  TRACK 28 AUDIO
    TITLE "9:cjc113_0723"
    INDEX 01 00:31:35
  TRACK 29 AUDIO
    TITLE "0:"
    INDEX 01 00:32:58
  TRACK 30 AUDIO
    TITLE "10:cjc113_0724"
    INDEX 01 00:33:03
  TRACK 31 AUDIO
    TITLE "0:"
    INDEX 01 00:36:31
  TRACK 32 AUDIO
    TITLE "8:cjc113_0725"
    INDEX 01 00:37:03
  TRACK 33 AUDIO
    TITLE "0:"
    INDEX 01 00:38:10
  TRACK 34 AUDIO
    TITLE "9:cjc113_0726"
    INDEX 01 00:38:30
  TRACK 35 AUDIO
    TITLE "0:"
    INDEX 01 00:39:43
  TRACK 36 AUDIO
    TITLE "10:cjc113_0727"
    INDEX 01 00:39:60
  TRACK 37 AUDIO
    TITLE "0:"
    INDEX 01 00:43:35
  TRACK 38 AUDIO
    TITLE "8:cjc113_0728"
    INDEX 01 00:44:01
  TRACK 39 AUDIO
    TITLE "0:"
    INDEX 01 00:45:10
  TRACK 40 AUDIO
    TITLE "9:cjc113_0729"
    INDEX 01 00:45:32
  TRACK 41 AUDIO
    TITLE "0:"
    INDEX 01 00:48:34
  TRACK 42 AUDIO
    TITLE "10:cjc113_0730"
    INDEX 01 00:48:57
  TRACK 43 AUDIO
    TITLE "0:"
    INDEX 01 00:52:08
  TRACK 44 AUDIO
    TITLE "8:cjc113_0731"
    INDEX 01 00:52:55
  TRACK 45 AUDIO
    TITLE "0:"
    INDEX 01 00:53:64
  TRACK 46 AUDIO
    TITLE "9:cjc113_0732"
    INDEX 01 00:54:11
  TRACK 47 AUDIO
    TITLE "0:"
    INDEX 01 00:56:61
  TRACK 48 AUDIO
    TITLE "10:cjc113_0733"
    INDEX 01 00:57:09
  TRACK 49 AUDIO
    TITLE "0:"
    INDEX 01 01:01:33
  TRACK 50 AUDIO
    TITLE "8:cjc113_0734"
    INDEX 01 01:02:05
  TRACK 51 AUDIO
    TITLE "0:"
    INDEX 01 01:03:22
  TRACK 52 AUDIO
    TITLE "9:cjc113_0735"
    INDEX 01 01:03:47
  TRACK 53 AUDIO
    TITLE "0:"
    INDEX 01 01:06:49
  TRACK 54 AUDIO
    TITLE "10:cjc113_0736"
    INDEX 01 01:06:71
  TRACK 55 AUDIO
    TITLE "0:"
    INDEX 01 01:11:51
  TRACK 56 AUDIO
    TITLE "8:cjc113_0737"
    INDEX 01 01:12:28
  TRACK 57 AUDIO
    TITLE "0:"
    INDEX 01 01:13:53
  TRACK 58 AUDIO
    TITLE "9:cjc113_0738"
    INDEX 01 01:14:00
  TRACK 59 AUDIO
    TITLE "0:"
    INDEX 01 01:17:10
  TRACK 60 AUDIO
    TITLE "10:cjc113_0739"
    INDEX 01 01:17:30
  TRACK 61 AUDIO
    TITLE "0:"
    INDEX 01 01:21:72
  TRACK 62 AUDIO
    TITLE "8:cjc113_0740"
    INDEX 01 01:22:52
  TRACK 63 AUDIO
    TITLE "0:"
    INDEX 01 01:23:62
  TRACK 64 AUDIO
    TITLE "9:cjc113_0741"
    INDEX 01 01:24:08
  TRACK 65 AUDIO
    TITLE "0:"
    INDEX 01 01:27:06
  TRACK 66 AUDIO
    TITLE "10:cjc113_0742"
    INDEX 01 01:27:26
  TRACK 67 AUDIO
    TITLE "0:"
    INDEX 01 01:30:46
